<svg width="258" height="258" viewBox="0 0 258 258" fill="none" xmlns="http://www.w3.org/2000/svg">
<path fill-rule="evenodd" clip-rule="evenodd" d="M117.634 225.007H46.5541V32.7049H117.54C137.134 32.7049 154.004 36.5547 168.151 44.2543C182.361 51.8913 193.316 62.9086 201.015 77.3062C208.715 91.6412 212.565 108.793 212.565 128.762C212.565 148.793 208.715 166.008 201.015 180.405C193.378 194.803 182.455 205.852 168.245 213.551C154.035 221.188 137.165 225.007 117.634 225.007ZM172.936 104.476C178.092 109.569 180.992 116.473 181 123.675C180.994 128.813 179.515 133.845 176.734 138.188C173.953 142.53 169.983 146.006 165.285 148.213V170.239C165.285 172.298 164.457 174.271 162.983 175.727C161.51 177.182 159.511 178 157.427 178H94.5662C92.4822 178 90.4836 177.182 89.01 175.727C87.5365 174.271 86.7086 172.298 86.7086 170.239V148.213C81.0687 145.569 76.5075 141.109 73.7748 135.565C71.042 130.021 70.3004 123.724 71.6717 117.708C73.0431 111.693 76.4458 106.317 81.3206 102.465C86.1954 98.613 92.2521 96.5137 98.495 96.5122C99.3643 96.5122 100.234 96.5607 101.093 96.6383C103.31 91.9638 106.831 88.0102 111.241 85.2406C115.652 82.471 120.77 81 125.997 81C131.223 81 136.342 82.471 140.752 85.2406C145.163 88.0102 148.683 91.9638 150.9 96.6383C151.76 96.5607 152.629 96.5122 153.498 96.5122C160.79 96.5199 167.78 99.3841 172.936 104.476ZM141.83 122.734L137.901 138.255C137.648 139.253 137.807 140.309 138.342 141.191C138.877 142.073 139.745 142.709 140.754 142.96C141.067 143.038 141.389 143.077 141.712 143.077C142.588 143.077 143.439 142.787 144.129 142.255C144.82 141.722 145.31 140.977 145.523 140.137L149.452 124.616C149.684 123.624 149.514 122.583 148.976 121.714C148.438 120.846 147.577 120.222 146.577 119.975C145.578 119.728 144.52 119.879 143.632 120.395C142.744 120.911 142.097 121.751 141.83 122.734ZM123.219 120.931C122.482 121.659 122.068 122.646 122.068 123.675V139.196C122.068 140.225 122.482 141.212 123.219 141.94C123.955 142.668 124.955 143.077 125.997 143.077C127.039 143.077 128.038 142.668 128.775 141.94C129.512 141.212 129.925 140.225 129.925 139.196V123.675C129.925 122.646 129.512 121.659 128.775 120.931C128.038 120.203 127.039 119.794 125.997 119.794C124.955 119.794 123.955 120.203 123.219 120.931ZM108.374 120.348C107.48 119.819 106.411 119.661 105.4 119.911C104.897 120.032 104.424 120.25 104.007 120.552C103.589 120.854 103.237 121.235 102.969 121.672C102.701 122.109 102.523 122.594 102.446 123.099C102.368 123.605 102.392 124.12 102.517 124.616L106.446 140.137C106.658 140.976 107.148 141.721 107.837 142.253C108.527 142.786 109.377 143.075 110.252 143.077C110.583 143.079 110.913 143.04 111.234 142.96C112.245 142.711 113.114 142.075 113.65 141.192C114.186 140.31 114.345 139.254 114.092 138.255L110.164 122.734C109.911 121.736 109.267 120.877 108.374 120.348ZM94.5662 170.239H157.427V150.556C156.126 150.743 154.813 150.837 153.498 150.837H98.495C97.1803 150.837 95.8672 150.743 94.5662 150.556V170.239Z" fill="url(#paint0_linear_1_2)"/>
<defs>
<linearGradient id="paint0_linear_1_2" x1="47" y1="33" x2="213" y2="225" gradientUnits="userSpaceOnUse">
<stop stop-color="#FB923C"/>
<stop offset="1" stop-color="#EA580C"/>
</linearGradient>
</defs>
</svg>
