<svg width="512" height="512" viewBox="0 0 512 512" fill="none" xmlns="http://www.w3.org/2000/svg">
<rect width="512" height="512" fill="#FFF7ED"/>
<path fill-rule="evenodd" clip-rule="evenodd" d="M248.692 316.868H203.559V194.766H248.632C261.073 194.766 271.784 197.21 280.767 202.099C289.79 206.948 296.745 213.944 301.634 223.085C306.523 232.187 308.967 243.078 308.967 255.757C308.967 268.476 306.523 279.406 301.634 288.548C296.785 297.69 289.849 304.705 280.827 309.594C271.804 314.443 261.093 316.868 248.692 316.868ZM283.806 240.337C287.079 243.57 288.921 247.954 288.926 252.527C288.922 255.79 287.983 258.985 286.217 261.742C284.451 264.499 281.93 266.707 278.947 268.108V282.093C278.947 283.4 278.422 284.653 277.486 285.578C276.55 286.502 275.281 287.021 273.958 287.021H234.045C232.721 287.021 231.452 286.502 230.517 285.578C229.581 284.653 229.055 283.4 229.055 282.093V268.108C225.474 266.429 222.578 263.597 220.843 260.077C219.108 256.557 218.637 252.558 219.508 248.739C220.379 244.919 222.539 241.506 225.634 239.06C228.73 236.614 232.575 235.281 236.539 235.28C237.091 235.28 237.643 235.311 238.189 235.36C239.597 232.392 241.832 229.882 244.632 228.123C247.433 226.365 250.683 225.431 254.001 225.431C257.32 225.431 260.57 226.365 263.37 228.123C266.171 229.882 268.406 232.392 269.814 235.36C270.36 235.311 270.912 235.28 271.463 235.28C276.093 235.285 280.532 237.104 283.806 240.337ZM264.055 251.93L261.56 261.785C261.4 262.418 261.5 263.089 261.84 263.649C262.18 264.209 262.731 264.613 263.372 264.772C263.57 264.822 263.775 264.846 263.98 264.846C264.536 264.846 265.076 264.662 265.515 264.324C265.953 263.986 266.265 263.513 266.399 262.98L268.894 253.125C269.042 252.495 268.933 251.834 268.592 251.282C268.251 250.731 267.704 250.335 267.069 250.178C266.434 250.021 265.763 250.117 265.199 250.445C264.635 250.772 264.224 251.306 264.055 251.93ZM252.237 250.785C251.77 251.247 251.507 251.874 251.507 252.527V262.382C251.507 263.036 251.77 263.663 252.237 264.125C252.705 264.587 253.34 264.846 254.001 264.846C254.663 264.846 255.297 264.587 255.765 264.125C256.233 263.663 256.496 263.036 256.496 262.382V252.527C256.496 251.874 256.233 251.247 255.765 250.785C255.297 250.323 254.663 250.063 254.001 250.063C253.34 250.063 252.705 250.323 252.237 250.785ZM242.812 250.415C242.244 250.079 241.565 249.979 240.923 250.137C240.604 250.214 240.304 250.352 240.039 250.544C239.774 250.736 239.55 250.978 239.38 251.255C239.21 251.533 239.097 251.841 239.048 252.162C238.999 252.482 239.014 252.81 239.093 253.125L241.588 262.98C241.722 263.512 242.033 263.985 242.471 264.323C242.909 264.661 243.449 264.846 244.004 264.846C244.214 264.848 244.424 264.823 244.628 264.772C245.27 264.614 245.821 264.21 246.162 263.65C246.502 263.09 246.603 262.419 246.443 261.785L243.948 251.93C243.788 251.296 243.379 250.751 242.812 250.415ZM234.045 282.093H273.958V269.595C273.132 269.714 272.298 269.774 271.463 269.774H236.539C235.704 269.774 234.871 269.714 234.045 269.595V282.093Z" fill="#FDBA74"/>
</svg>
